<svg xmlns="http://www.w3.org/2000/svg" xmlns:xlink="http://www.w3.org/1999/xlink" version="1.1" x="0px" y="0px" viewBox="0 0 100 125" enable-background="new 0 0 100 100" xml:space="preserve"><g><path d="M94,68.922h-9.017V20.815c0-0.552-0.447-1-1-1H16.016c-0.552,0-1,0.448-1,1v48.106H6c-0.552,0-1,0.447-1,1   c0,3.021,2.44,7.682,5.683,7.682h78.634c3.242,0,5.683-4.66,5.683-7.682C95,69.369,94.553,68.922,94,68.922z M17.016,21.815h65.967   v47.106H17.016V21.815z M89.317,75.604H10.683c-1.537,0-3.168-2.49-3.583-4.682h85.799C92.485,73.113,90.854,75.604,89.317,75.604z   "/><path d="M44.25,74.263h10c0.553,0,1-0.447,1-1s-0.447-1-1-1h-10c-0.552,0-1,0.447-1,1S43.698,74.263,44.25,74.263z"/><path d="M80,23.249H19.5c-0.552,0-1,0.448-1,1v41.542c0,0.553,0.448,1,1,1H80c0.553,0,1-0.447,1-1V24.249   C81,23.697,80.553,23.249,80,23.249z M79,64.791H20.5V25.249H79V64.791z"/><path d="M30.563,61.856h18.028c0-0.017,0.006-0.033,0.007-0.05c0.081,0.021,0.159,0.05,0.246,0.05h20.822c0.553,0,1-0.447,1-1   V29.603c0-0.552-0.447-1-1-1H48.845c-0.552,0-1,0.448-1,1v2.188H30.563c-0.552,0-1,0.448-1,1v28.065   C29.563,61.409,30.011,61.856,30.563,61.856z M49.845,30.603h18.822v29.253H49.845V30.603z M31.563,33.792h16.282v26.065H31.563   V33.792z"/><path d="M34.042,38.138h2.898c0.552,0,1-0.448,1-1s-0.448-1-1-1h-2.898c-0.552,0-1,0.448-1,1S33.489,38.138,34.042,38.138z"/><path d="M39.682,38.138h5.953c0.552,0,1-0.448,1-1s-0.448-1-1-1h-5.953c-0.552,0-1,0.448-1,1S39.129,38.138,39.682,38.138z"/><path d="M34.042,41.833H45.25c0.552,0,1-0.448,1-1s-0.448-1-1-1H34.042c-0.552,0-1,0.448-1,1S33.489,41.833,34.042,41.833z"/><path d="M34.042,45.604h11.593c0.552,0,1-0.448,1-1s-0.448-1-1-1H34.042c-0.552,0-1,0.448-1,1S33.489,45.604,34.042,45.604z"/><path d="M34.042,49.5h7.292c0.552,0,1-0.448,1-1s-0.448-1-1-1h-7.292c-0.552,0-1,0.448-1,1S33.489,49.5,34.042,49.5z"/><path d="M46.083,47.5H43.5c-0.552,0-1,0.448-1,1s0.448,1,1,1h2.583c0.552,0,1-0.448,1-1S46.636,47.5,46.083,47.5z"/><path d="M45.634,51.417H34.042c-0.552,0-1,0.447-1,1s0.448,1,1,1h11.593c0.552,0,1-0.447,1-1S46.187,51.417,45.634,51.417z"/><path d="M41.667,55.333h-7.625c-0.552,0-1,0.447-1,1s0.448,1,1,1h7.625c0.552,0,1-0.447,1-1S42.219,55.333,41.667,55.333z"/><path d="M52.25,33.792h4c0.553,0,1-0.448,1-1s-0.447-1-1-1h-4c-0.553,0-1,0.448-1,1S51.697,33.792,52.25,33.792z"/><path d="M58.833,33.792h7.584c0.553,0,1-0.448,1-1s-0.447-1-1-1h-7.584c-0.553,0-1,0.448-1,1S58.28,33.792,58.833,33.792z"/><path d="M52.25,37.167h13.833c0.553,0,1-0.448,1-1s-0.447-1-1-1H52.25c-0.553,0-1,0.448-1,1S51.697,37.167,52.25,37.167z"/><path d="M52.25,40.333h4.917c0.553,0,1-0.448,1-1s-0.447-1-1-1H52.25c-0.553,0-1,0.448-1,1S51.697,40.333,52.25,40.333z"/><path d="M66.417,38.333h-6.584c-0.553,0-1,0.448-1,1s0.447,1,1,1h6.584c0.553,0,1-0.448,1-1S66.97,38.333,66.417,38.333z"/><path d="M65.745,44.572c-0.008-0.009-0.02-0.013-0.028-0.021c-1.516-1.723-3.729-2.817-6.199-2.817   c-4.559,0-8.268,3.708-8.268,8.267c0,4.559,3.709,8.267,8.268,8.267c4.558,0,8.266-3.708,8.266-8.267   c0-2.065-0.767-3.952-2.023-5.402C65.753,44.59,65.752,44.58,65.745,44.572z M58.518,56.179c-2.981-0.48-5.268-3.064-5.268-6.179   c0-0.717,0.127-1.403,0.35-2.045l4.918,2.643V56.179z M59.382,48.792l-4.832-2.597c1.146-1.493,2.944-2.461,4.968-2.461   c1.521,0,2.917,0.546,4.003,1.451L59.382,48.792z M60.518,56.179v-5.724l4.313-3.76c0.6,0.961,0.952,2.091,0.952,3.305   C65.783,53.114,63.498,55.697,60.518,56.179z"/></g><text x="0" y="115" fill="#000000" font-size="5px" font-weight="bold" font-family="'Helvetica Neue', Helvetica, Arial-Unicode, Arial, Sans-serif">Created by Brand Mania</text><text x="0" y="120" fill="#000000" font-size="5px" font-weight="bold" font-family="'Helvetica Neue', Helvetica, Arial-Unicode, Arial, Sans-serif">from the Noun Project</text></svg>