<svg xmlns="http://www.w3.org/2000/svg" xmlns:xlink="http://www.w3.org/1999/xlink" version="1.1" x="0px" y="0px" viewBox="0 0 100 125" enable-background="new 0 0 100 100" xml:space="preserve"><path d="M28,20v14H18v36h10v10h52V20H28z M28,44h5.3l2.7,4l2.7-4H44l-5.3,8l5.3,8h-5.3L36,56l-2.7,4H28l5.3-8L28,44z M76,76H32v-6  h22V58h16v-4H54v-4h16v-4H54v-4h16v-4H54v-4H32V24h44V76z"/><text x="0" y="115" fill="#000000" font-size="5px" font-weight="bold" font-family="'Helvetica Neue', Helvetica, Arial-Unicode, Arial, Sans-serif">Created by Gleb Khorunzhiy</text><text x="0" y="120" fill="#000000" font-size="5px" font-weight="bold" font-family="'Helvetica Neue', Helvetica, Arial-Unicode, Arial, Sans-serif">from the Noun Project</text></svg>