<svg xmlns="http://www.w3.org/2000/svg" xmlns:xlink="http://www.w3.org/1999/xlink" xml:space="preserve" style="shape-rendering:geometricPrecision;text-rendering:geometricPrecision;image-rendering:optimizeQuality;" viewBox="0 0 1.70666 2.133325" x="0px" y="0px" fill-rule="evenodd" clip-rule="evenodd"><defs><style type="text/css">
   
    .fil0 {fill:black}
   
  </style></defs><g><g><g><g><path class="fil0" d="M0.273248 1.32001c-7.87402e-006,0 0,0 0,0 -0.0562087,0 -0.109209,-0.00216535 -0.157579,-0.00645276 -0.010315,-0.000917323 -0.0182323,-0.00955118 -0.0182323,-0.0199291l0 -0.832004c0,-0.00612598 0.00280315,-0.0119134 0.00762598,-0.0157047 0.0048189,-0.00377953 0.0111102,-0.00515354 0.0170669,-0.00373622 0.0686969,0.0165512 0.15061,0.0245945 0.250406,0.0245945 0.153748,0 0.324906,-0.0187913 0.506106,-0.0386772 0.185752,-0.0203819 0.377823,-0.0414606 0.554787,-0.0414606 0.0562087,0 0.109213,0.00217717 0.157579,0.00645669 0.0103189,0.000917323 0.0182323,0.00955118 0.0182323,0.0199252l0 0.832024c0,0.00612598 -0.0028189,0.0119134 -0.00763386,0.0157047 -0.00480315,0.00377559 -0.0111102,0.0051378 -0.0170512,0.00374409 -0.0686969,-0.0165512 -0.15061,-0.0245906 -0.250406,-0.0245906 -0.15376,0 -0.324921,0.0187874 -0.50615,0.0386732 -0.185728,0.0203701 -0.377783,0.0414331 -0.554752,0.0414331zm-0.135819 -0.0447835c0.0422008,0.0031811 0.0877717,0.00480315 0.135795,0.00480315 0.174783,0 0.365744,-0.0209567 0.550417,-0.0412244 0.182335,-0.0199961 0.354567,-0.0389094 0.510516,-0.0389094 0.0914409,0 0.168661,0.0066378 0.235091,0.0202165l0 -0.788677c-0.042185,-0.00319685 -0.0877717,-0.0048189 -0.135803,-0.0048189 -0.174783,0 -0.365744,0.0209567 -0.550425,0.0412244 -0.182327,0.0200118 -0.354535,0.0389134 -0.510476,0.0389134 -0.0914252,0 -0.168677,-0.00662598 -0.235106,-0.0202165l-7.87402e-006 0.788689z"/></g><g><path class="fil0" d="M0.345236 1.19539c-0.0051811,0 -0.0101496,-0.00201575 -0.0138898,-0.00561024 -0.00387008,-0.00374409 -0.00608268,-0.00888583 -0.0061063,-0.0142598 -0.000295276,-0.0459488 -0.0379094,-0.083315 -0.0838583,-0.083315 -0.0110354,0 -0.0199961,-0.0089685 -0.0199961,-0.0199961l0 -0.362492c0,-0.0110354 0.00896063,-0.0199961 0.0199961,-0.0199961 0.0449213,0 0.0817205,-0.0351142 0.0837717,-0.0799409 0.000488189,-0.0107913 0.00916535,-0.0195236 0.020248,-0.0190787 0.00842913,0.000110236 0.0168583,0.000169291 0.0252874,0.000169291 0.0457283,0 0.0956496,-0.0016378 0.15261,-0.00502756 0.122445,-0.00727559 0.246909,-0.0210236 0.367283,-0.034311 0.0371575,-0.00410236 0.0742874,-0.00820866 0.111409,-0.0121378 0.121197,-0.012815 0.239823,-0.0246181 0.358854,-0.0281181 0.0055,-2.75591e-005 0.0106063,0.00187402 0.0144685,0.00559449 0.00387402,0.00373622 0.00608268,0.00887402 0.00611024,0.0142598 0.000295276,0.0459488 0.0379094,0.083315 0.0838583,0.083315 0.0110354,0 0.0199921,0.00896063 0.0199921,0.0199961l0 0.36248c0,0.0110394 -0.0089685,0.0199961 -0.0199921,0.0199961 -0.0449094,0 -0.0817244,0.0351063 -0.0837756,0.0799449 -0.000488189,0.010689 -0.00930315,0.0190748 -0.0199685,0.0190748 -8.26772e-005,0 -0.000177165,0 -0.000279528,-1.5748e-005 -0.00838583,-0.000110236 -0.0167598,-0.000165354 -0.0251339,-0.000165354 -0.0458228,0 -0.0957835,0.00164961 -0.15276,0.00503543 -0.122465,0.00727559 -0.246945,0.0210276 -0.367358,0.0343307 -0.0371299,0.00409843 -0.0742598,0.00819291 -0.111366,0.0121063 -0.121142,0.0128307 -0.239756,0.024622 -0.358854,0.028122 -0.000149606,3.14961e-005 -0.000358268,3.93701e-005 -0.000551181,3.93701e-005zm-0.0838583 -0.141575c0.0517795,0.00848425 0.0930118,0.0493228 0.10202,0.100965 0.111465,-0.00408268 0.22311,-0.0152283 0.337071,-0.0272835 0.0370315,-0.00391732 0.0740945,-0.00801575 0.111173,-0.0121102 0.120894,-0.0133465 0.245894,-0.0271496 0.369366,-0.0344803 0.0610039,-0.0036378 0.113937,-0.00543307 0.162929,-0.00509449 0.010248,-0.0502953 0.0506969,-0.0890787 0.101354,-0.0972717l-3.93701e-006 -0.325713c-0.0517717,-0.00848819 -0.0929961,-0.0493071 -0.102024,-0.100965 -0.111394,0.00408268 -0.223067,0.0152283 -0.337067,0.0272992 -0.037063,0.00391732 -0.0741378,0.00801575 -0.111244,0.0121063 -0.120862,0.0133465 -0.245839,0.0271496 -0.369299,0.0344843 -0.0610433,0.00362598 -0.11378,0.00531496 -0.162953,0.00507874 -0.0102323,0.050311 -0.0506811,0.0890945 -0.101339,0.0972717l0 0.325713 1.5748e-005 0z"/></g><g><path class="fil0" d="M0.853339 0.96474c-0.0362283,0 -0.0656929,-0.0294803 -0.0656929,-0.0657087 0,-0.0110354 0.00896063,-0.0199961 0.0199961,-0.0199961 0.0110394,0 0.0199961,0.0089685 0.0199961,0.0199961 0,0.0141772 0.0115433,0.0257165 0.0257008,0.0257165 0.0141614,0 0.0257008,-0.0115236 0.0257008,-0.0257165 0,-0.0175079 -0.00495669,-0.0202047 -0.0303268,-0.0262559 -0.0228425,-0.00544488 -0.0610591,-0.0145394 -0.0610591,-0.0651535 0,-0.0362283 0.0294646,-0.0656929 0.0656929,-0.0656929 0.0362126,0 0.0656929,0.0294646 0.0656929,0.0656929 0,0.0110354 -0.00897244,0.0199961 -0.0199961,0.0199961 -0.0110276,0 -0.0199961,-0.00896063 -0.0199961,-0.0199961 0,-0.0141772 -0.0115276,-0.0257008 -0.0257008,-0.0257008 -0.0141772,0 -0.0257008,0.0115394 -0.0257008,0.0257008 0,0.0175079 0.0049685,0.0202165 0.0303386,0.0262559 0.0228425,0.00544488 0.0610591,0.0145394 0.0610591,0.0651535 -1.1811e-005,0.0362244 -0.0294921,0.0657087 -0.0657047,0.0657087z"/></g><g><path class="fil0" d="M0.853339 0.781909c-0.0110354,0 -0.0199961,-0.00895669 -0.0199961,-0.0199961l0 -0.0242874c0,-0.0110354 0.00896063,-0.0199961 0.0199961,-0.0199961 0.0110394,0 0.0199961,0.00896063 0.0199961,0.0199961l0 0.0242874c0,0.0110433 -0.00895669,0.0199961 -0.0199961,0.0199961z"/></g><g><path class="fil0" d="M0.853339 0.989008c-0.0110354,0 -0.0199961,-0.0089685 -0.0199961,-0.0199961l0 -0.0242717c0,-0.0110394 0.00896063,-0.0199961 0.0199961,-0.0199961 0.0110394,0 0.0199961,0.0089685 0.0199961,0.0199961l0 0.0242717c0,0.0110433 -0.00895669,0.0199961 -0.0199961,0.0199961z"/></g><g><path class="fil0" d="M0.853339 1.05733c-0.112488,0 -0.203984,-0.0915276 -0.203984,-0.204 0,-0.112476 0.0914961,-0.204 0.203984,-0.204 0.112492,0 0.204,0.0915079 0.204,0.204 0,0.112488 -0.0915079,0.204 -0.204,0.204zm0 -0.368008c-0.0904252,0 -0.164008,0.0735669 -0.164008,0.164008 0,0.090437 0.0735827,0.164008 0.164008,0.164008 0.0904409,0 0.164008,-0.0735709 0.164008,-0.164008 0,-0.0904409 -0.0735669,-0.164008 -0.164008,-0.164008z"/></g><g><path class="fil0" d="M0.477713 1.01033c-0.0653031,0 -0.118421,-0.0531299 -0.118421,-0.118421 0,-0.0653071 0.053126,-0.118433 0.118421,-0.118433 0.0652913,0 0.118433,0.053126 0.118433,0.118433 0,0.0652756 -0.0531299,0.118421 -0.118433,0.118421zm0 -0.196878c-0.0432559,0 -0.0784291,0.035189 -0.0784291,0.0784409 0,0.0432402 0.035189,0.0784134 0.0784291,0.0784134 0.0432402,0 0.0784409,-0.0351732 0.0784409,-0.0784134 0,-0.0432402 -0.0351929,-0.0784409 -0.0784409,-0.0784409z"/></g><g><path class="fil0" d="M1.22897 0.935272c-0.0653031,0 -0.118433,-0.0531299 -0.118433,-0.118433 0,-0.0653031 0.0531299,-0.118421 0.118433,-0.118421 0.0653031,0 0.118433,0.053126 0.118433,0.118421 0,0.0652913 -0.053122,0.118433 -0.118433,0.118433zm0 -0.196862c-0.0432559,0 -0.0784291,0.035189 -0.0784291,0.0784291 0,0.0432402 0.0351732,0.0784291 0.0784291,0.0784291 0.0432559,0 0.0784291,-0.0351732 0.0784291,-0.0784291 0,-0.0432559 -0.0351732,-0.0784291 -0.0784291,-0.0784291z"/></g><g><path class="fil0" d="M0.256465 1.4891c-0.00889764,0 -0.0169252,-0.00597244 -0.0193031,-0.014815l-0.0455591 -0.170024c-0.0016378,-0.00611024 -0.000295276,-0.0126378 0.0036378,-0.0176063 0.00392913,-0.00494488 0.0097874,-0.0074685 0.0162913,-0.00757087 0.0198858,0.000610236 0.0406575,0.00092126 0.061748,0.00092126 0.17487,0 0.365941,-0.0209685 0.550709,-0.0412441 0.0410709,-0.00449606 0.0819646,-0.00898425 0.122461,-0.0132283 0.00973622,-0.000988189 0.0191614,0.00545669 0.0215079,0.0151929 0.0023622,0.00973622 -0.00284646,0.0197008 -0.0121772,0.0233425l-0.0167047 0.0065c-0.228091,0.0887717 -0.463945,0.180559 -0.67915,0.218232 -0.00115354,0.000188976 -0.00232677,0.000299213 -0.00346063,0.000299213zm-0.0193189 -0.169394l0.0338858 0.126421c0.167547,-0.0315354 0.348693,-0.0956772 0.528488,-0.164441 -0.176811,0.0193583 -0.358299,0.038315 -0.526224,0.038315 -0.0121811,0 -0.0242756,-8.66142e-005 -0.0361496,-0.000295276zm1.3521 -0.252587c-0.00485827,0 -0.00956693,-0.00177953 -0.0132441,-0.00501181 -0.00429528,-0.00379134 -0.00675197,-0.00924803 -0.00675197,-0.0149843l0 -0.290677c0,-0.0100394 0.00744488,-0.0185079 0.0173976,-0.0198268 0.00995669,-0.00127559 0.0193307,0.00496063 0.0219134,0.0146496l0.0763031 0.28476c0.00158661,0.00592913 0.000374016,0.012248 -0.00329134,0.0171496 -0.00366535,0.00491732 -0.00938583,0.0078622 -0.0155079,0.00801575 -0.0231339,0.000582677 -0.0481575,0.00252756 -0.0743465,0.00574409 -0.000850394,0.000137795 -0.00165354,0.000181102 -0.00247244,0.000181102zm0.0200079 -0.158787l0 0.116465c0.0104016,-0.00102756 0.0205945,-0.00184646 0.0305354,-0.00245669l-0.0305354 -0.114008zm-1.49183 0.061878c-0.00894488,0 -0.0169409,-0.006 -0.0193031,-0.014815l-0.0763071 -0.284787c-0.00158268,-0.00591339 -0.000362205,-0.0122323 0.00330709,-0.0171378 0.00366929,-0.00491732 0.00937402,-0.00785827 0.0155079,-0.00802362 0.0232441,-0.000598425 0.0482874,-0.00252756 0.0743583,-0.00574409 0.0056811,-0.000708661 0.0114016,0.00106693 0.0156929,0.00487402 0.00430315,0.0037874 0.00674803,0.00924803 0.00674803,0.0149843l0 0.290673c0,0.0100394 -0.00744094,0.0185118 -0.0173858,0.0198307 -0.000870079,8.66142e-005 -0.00174803,0.000145669 -0.00261811,0.000145669zm-0.0505197 -0.285882l0.0305472 0.114 0 -0.116449c-0.0104016,0.00101575 -0.0205945,0.00183465 -0.0305472,0.00244882zm0.691232 -0.203114c-0.0091378,0 -0.0172323,-0.00625197 -0.0194134,-0.0152874 -0.0023622,-0.00973622 0.00284252,-0.0197047 0.0121732,-0.0233465l0.0170787 -0.00664961c0.227969,-0.0887047 0.463685,-0.180417 0.67878,-0.218079 0.0101772,-0.00176378 0.0200787,0.00451181 0.0227598,0.0145276l0.0447283 0.166909c0.00115354,0.00252756 0.0017874,0.00533071 0.0017874,0.00829134 -1.5748e-005,0.0110787 -0.00930315,0.0194803 -0.020122,0.0199961 -0.000275591,0 -0.000496063,0 -0.00076378,0 -0.0198701,-0.000610236 -0.0406457,-0.000917323 -0.061752,-0.000917323 -0.174827,0 -0.365799,0.0209567 -0.550496,0.0412126 -0.0411575,0.00451575 -0.0821181,0.009 -0.122665,0.013248 -0.000704724,6.69291e-005 -0.00141339,9.44882e-005 -0.00209449,9.44882e-005zm0.677528 -0.220689c-0.167559,0.0315354 -0.348677,0.095685 -0.528488,0.164453 0.176783,-0.0193543 0.358299,-0.038311 0.52622,-0.038311 0.0121929,0 0.0242756,9.84252e-005 0.0361457,0.000291339l-0.033878 -0.126433z"/></g><g><path class="fil0" d="M0.436205 1.6226c-0.00694488,0 -0.0136535,-0.0036378 -0.0173307,-0.0100118l-0.088 -0.152441c-0.00316142,-0.00548425 -0.00353937,-0.012126 -0.00103543,-0.0179291 0.0025,-0.00580315 0.00762205,-0.0100984 0.0137756,-0.0115236 0.186461,-0.0438819 0.387185,-0.121992 0.581295,-0.197547l0.0163701 -0.00637008c0.00166929,-0.000649606 0.00340157,-0.00107087 0.0051811,-0.00126378 0.0181063,-0.00188976 0.0361299,-0.00373622 0.0540472,-0.0055 0.00902362,-0.00096063 0.0174134,0.00433465 0.0206339,0.012748 0.00322441,0.00841339 0.000413386,0.0179528 -0.00684252,0.0232717 -0.203858,0.149402 -0.387421,0.279957 -0.569673,0.364673 -0.00272835,0.00127953 -0.00559055,0.0018937 -0.00842126,0.0018937zm-0.0573504 -0.159299l0.0654449 0.113366c0.150122,-0.0720669 0.302673,-0.176004 0.467846,-0.295618 -0.177894,0.0691614 -0.360524,0.139063 -0.533291,0.182252zm-0.105496 -0.143303c0,0 0,0 0,0l-0.0120118 -2.75591e-005c-0.0110276,-6.69291e-005 -0.0199291,-0.00903543 -0.0198858,-0.0200787 4.33071e-005,-0.0110118 0.00898425,-0.0199291 0.0199961,-0.0199291 1.5748e-005,0 2.75591e-005,0 4.33071e-005,0l0.0118583 2.75591e-005c0.144445,0 0.299205,-0.0143031 0.444965,-0.0297756 0.000177165,-1.5748e-005 0.00026378,7.08661e-005 0.000566929,-6.69291e-005l0 0 0 0 0 0c1.5748e-005,0 2.75591e-005,0 4.33071e-005,0l0.00211024 0.0198858 -0.00211024 -0.0198858 0 0 0.00211024 0.0198858 -0.00211024 -0.0198858c0.000165354,-1.5748e-005 0.000318898,-2.75591e-005 0.000488189,-4.33071e-005l0 -1.5748e-005c0.000401575,-3.93701e-005 0.000818898,-6.69291e-005 0.00122047,-9.84252e-005l0 -2.75591e-005c0.0110551,-0.00130315 0.0208307,0.00677559 0.0219961,0.0177638 6.69291e-005,0.000708661 0.000110236,0.00141339 0.000110236,0.0021063 1.5748e-005,0.0101102 -0.00761024,0.0187992 -0.0178858,0.0198858l0 -2.3622e-005c-0.000405512,6.69291e-005 -0.00080315,0.000125984 -0.00120866,0.000165354l0 -1.5748e-005c-0.000165354,2.75591e-005 -0.000318898,4.33071e-005 -0.000484252,7.08661e-005l0 0c-2.75591e-005,0 -7.08661e-005,0 -0.000102362,0 -0.147071,0.0156378 -0.303358,0.0300827 -0.449709,0.0300827zm-0.155925 -0.24948c-0.00701181,0 -0.0136772,-0.00370866 -0.017311,-0.0100157l-0.0972559 -0.16848c-0.00307087,-0.00530315 -0.00352756,-0.0117323 -0.00125197,-0.0174134 0.00227953,-0.00569291 0.00703937,-0.0100236 0.0129173,-0.0117598 0.0223307,-0.00659843 0.0459921,-0.0149252 0.0703228,-0.0247992 0.00531496,-0.00213386 0.0113031,-0.00192913 0.0164252,0.000625984 0.0051378,0.00255512 0.00892913,0.00719291 0.0104134,0.0127323l0.0250748 0.0936063c0.000448819,0.00169685 0.000685039,0.00343307 0.000685039,0.0051811l-7.87402e-006 0.100315c0,0.00903543 -0.00608268,0.0169843 -0.014815,0.019315 -0.00173622,0.000456693 -0.00347244,0.000692913 -0.00519685,0.000692913zm-0.0674685 -0.176906l0.0474882 0.0822795 0 -0.0230512 -0.0186181 -0.0694882c-0.00976378,0.00367323 -0.0193976,0.0071063 -0.0288701,0.0102598zm1.56436 -0.0235551c-0.00307087,0 -0.00611024,-0.000708661 -0.00891732,-0.00209843 -0.0051378,-0.00255512 -0.00892913,-0.00719291 -0.0104016,-0.0127323l-0.0250787 -0.0936063c-0.000456693,-0.00169685 -0.000692913,-0.00343307 -0.000692913,-0.0051811l0 -0.100295c0,-0.00905118 0.00608268,-0.0169646 0.0148189,-0.019311 0.00872047,-0.00234646 0.0179685,0.0014685 0.0224921,0.00931496l0.0972559 0.168465c0.00307087,0.00530315 0.00352756,0.0117165 0.00124803,0.0174134 -0.00225984,0.00569291 -0.00702756,0.0100236 -0.0128976,0.0117598 -0.0223701,0.0066063 -0.0460354,0.0149567 -0.0703346,0.024815 -0.00239764,0.000976378 -0.00495276,0.00145669 -0.00749213,0.00145669zm-0.00507087 -0.116236l0.0186063 0.0694724c0.00975984,-0.0036811 0.0193858,-0.00709843 0.0288701,-0.0102638l-0.0474764 -0.0822598 0 0.0230512zm-0.905035 -0.26711c-0.00822047,0 -0.0156772,-0.00505512 -0.0186654,-0.0128425 -0.00322047,-0.00841339 -0.000413386,-0.017937 0.0068622,-0.0232717 0.203803,-0.14937 0.38735,-0.279913 0.569646,-0.364657 0.00941339,-0.00440551 0.0205787,-0.000846457 0.0257441,0.00813386l0.0879961 0.152425c0.00316535,0.0054685 0.00355118,0.012122 0.00102756,0.0179291 -0.00251181,0.00580315 -0.00761024,0.0100787 -0.0137598,0.0115394 -0.146535,0.0344803 -0.30187,0.0901181 -0.45589,0.149024 0.176799,-0.0193543 0.358299,-0.038311 0.52622,-0.038311l0.0119134 2.75591e-005c0.0110394,5.51181e-005 0.0199409,0.00905118 0.0198976,0.0200787 -5.90551e-005,0.0110118 -0.009,0.0199094 -0.0199961,0.0199094 -2.75591e-005,0 -5.90551e-005,0 -6.69291e-005,0l-0.011748 -2.3622e-005c-0.174823,0 -0.365815,0.0209567 -0.550512,0.0412126 -0.0282126,0.00309843 -0.0563346,0.00617717 -0.0842835,0.0091811 -0.0051811,0.000555118 -0.0100827,-0.000905512 -0.0139724,-0.00376378 -0.00319685,0.00359449 -0.00769291,0.00606693 -0.0128425,0.0066063 0,0 0,0 -1.5748e-005,0l-0.00030315 2.75591e-005c-0.0218858,0.0023189 -0.0436614,0.00455512 -0.0652953,0.00669291 -0.000649606,5.11811e-005 -0.00130315,8.26772e-005 -0.00195669,8.26772e-005zm0.558161 -0.356705c-0.150161,0.0720866 -0.302705,0.176008 -0.467835,0.29561 0.177894,-0.0691693 0.360508,-0.139087 0.533264,-0.182256l-0.0654291 -0.113354z"/></g></g></g></g><text x="0" y="16.70666" fill="#000000" font-size="5px" font-weight="bold" font-family="'Helvetica Neue', Helvetica, Arial-Unicode, Arial, Sans-serif">Created by Amir Ali</text><text x="0" y="21.70666" fill="#000000" font-size="5px" font-weight="bold" font-family="'Helvetica Neue', Helvetica, Arial-Unicode, Arial, Sans-serif">from the Noun Project</text></svg>