<svg xmlns="http://www.w3.org/2000/svg" viewBox="0 0 92.5 128.75" x="0px" y="0px"><defs><style>.cls-1{fill:none;stroke:#000;stroke-miterlimit:10;stroke-width:3px;}</style></defs><title>Asset 257</title><g data-name="Layer 2"><g><polyline class="cls-1" points="82.76 58.57 82.76 31.42 53.45 1.5 9.74 1.5 9.74 58.57"/><polyline class="cls-1" points="9.74 90.48 9.74 101.5 82.76 101.5 82.76 90.48"/><polyline class="cls-1" points="53.45 1.5 53.45 30.81 82.76 30.81"/><rect class="cls-1" x="1.5" y="58.57" width="89.5" height="31.91"/><path d="M26.61,80.46l1.64-2.3a6.23,6.23,0,0,0,4.51,1.92c1.66,0,2.47-.77,2.47-1.58,0-2.51-8.17-.78-8.17-6.12,0-2.36,2-4.32,5.38-4.32A7.88,7.88,0,0,1,38,70l-1.68,2.21a6.11,6.11,0,0,0-4.13-1.55c-1.29,0-2,.57-2,1.42,0,2.26,8.15.75,8.15,6,0,2.6-1.85,4.55-5.68,4.55A8.1,8.1,0,0,1,26.61,80.46Z"/><path d="M39.65,75.38A7.13,7.13,0,0,1,47.06,68a7.13,7.13,0,0,1,7.42,7.34,7.33,7.33,0,0,1-1.85,5l1,1.21-2.11,1.72L50.42,82a8.14,8.14,0,0,1-3.36.7A7.12,7.12,0,0,1,39.65,75.38Zm8.89,4.42L47,78l2.09-1.72,1.57,1.85a5.18,5.18,0,0,0,.72-2.72c0-2.66-1.7-4.66-4.31-4.66s-4.3,2-4.3,4.66S44.44,80,47.06,80A4.73,4.73,0,0,0,48.54,79.8Z"/><path d="M56.61,82.46V68.27h3V79.8h6v2.66Z"/></g></g><text x="0" y="118" fill="#000000" font-size="5px" font-weight="bold" font-family="'Helvetica Neue', Helvetica, Arial-Unicode, Arial, Sans-serif">Created by StoneHub</text><text x="0" y="123" fill="#000000" font-size="5px" font-weight="bold" font-family="'Helvetica Neue', Helvetica, Arial-Unicode, Arial, Sans-serif">from the Noun Project</text></svg>